<?xml version="1.0" standalone="no"?>
<!DOCTYPE svg PUBLIC "-//W3C//DTD SVG 20010904//EN"
 "http://www.w3.org/TR/2001/REC-SVG-20010904/DTD/svg10.dtd">
<svg version="1.0" xmlns="http://www.w3.org/2000/svg"
 width="1024.000000pt" height="1024.000000pt" viewBox="0 0 1024.000000 1024.000000"
 preserveAspectRatio="xMidYMid meet">

<g transform="translate(0.000000,1024.000000) scale(0.100000,-0.100000)"
fill="#000000" stroke="none">
<path d="M0 5120 l0 -5120 5120 0 5120 0 0 5120 0 5120 -5120 0 -5120 0 0
-5120z m5254 2687 c13 -37 -2 -61 -41 -65 -25 -3 -32 2 -43 28 -11 27 -10 33
6 51 26 29 66 22 78 -14z m-427 -253 c-3 -3 -12 -4 -19 -1 -8 3 -5 6 6 6 11 1
17 -2 13 -5z m423 -744 c22 -42 -21 -90 -62 -69 -44 23 -27 89 22 89 19 0 33
-7 40 -20z m31 -493 c94 -63 87 -190 -15 -241 -52 -25 -100 -15 -148 34 -34
33 -38 43 -38 86 0 115 111 182 201 121z m-857 -293 c31 -30 9 -84 -34 -84
-17 0 -50 34 -50 52 0 13 39 48 54 48 8 0 22 -7 30 -16z m1661 -39 c0 -37 -25
-53 -59 -37 -35 16 -37 68 -3 81 31 13 62 -9 62 -44z m-3373 -618 c53 -67 130
-168 171 -223 42 -56 83 -106 91 -113 11 -9 24 3 72 70 62 86 296 382 298 377
0 -2 0 -229 -2 -505 l-3 -503 -68 0 c-62 0 -69 2 -74 22 -3 11 -3 137 0 280 3
147 2 258 -3 258 -5 0 -18 -13 -29 -29 -59 -87 -181 -251 -186 -251 -3 0 -26
28 -49 63 -84 120 -164 227 -172 227 -4 0 -8 -128 -8 -285 l0 -285 -75 0 -75
0 0 510 c0 281 4 510 8 510 5 0 52 -55 104 -123z m888 -387 l0 -510 -75 0 -75
0 0 503 c0 277 3 507 7 510 3 4 37 7 75 7 l68 0 0 -510z m260 0 l0 -510 -70 0
-70 0 0 510 0 510 70 0 70 0 0 -510z m480 473 c0 -21 -3 -55 -6 -75 l-7 -38
-66 0 c-84 0 -125 -23 -142 -78 -18 -61 1 -102 74 -165 135 -114 194 -181 211
-237 35 -117 9 -234 -66 -307 -69 -66 -98 -77 -226 -81 -63 -2 -118 0 -122 4
-5 5 -6 37 -3 72 l6 62 70 0 c135 0 206 46 215 138 7 77 -7 96 -186 250 -84
72 -115 134 -116 227 -1 91 23 154 76 200 55 47 108 63 206 64 l82 1 0 -37z
m328 -175 l2 -208 85 0 85 0 0 210 0 210 70 0 70 0 0 -510 0 -510 -70 0 -70 0
0 225 0 225 -85 0 -85 0 0 -225 0 -225 -75 0 -75 0 0 413 c0 226 3 456 7 510
l6 98 66 -3 66 -3 3 -207z m589 197 c60 -18 135 -80 166 -139 31 -59 31 -174
-2 -235 -12 -24 -34 -55 -47 -68 l-24 -24 39 -45 c104 -118 96 -301 -16 -405
-55 -50 -117 -79 -189 -86 l-54 -6 0 77 0 76 28 0 c43 0 125 45 146 80 33 57
16 160 -34 205 -10 9 -46 22 -79 28 l-61 12 0 66 0 67 56 7 c75 9 114 43 121
106 9 83 -35 132 -132 146 l-45 6 0 73 0 74 38 0 c21 0 61 -7 89 -15z m1163
-60 l0 -75 -417 2 -418 3 -3 73 -3 72 421 0 420 0 0 -75z m770 70 c0 -10 -81
-166 -164 -319 -151 -274 -296 -545 -296 -550 0 -3 99 -6 220 -6 248 0 225 9
214 -87 l-7 -53 -334 0 -334 0 57 108 c81 151 269 495 348 635 36 64 66 119
66 122 0 3 -94 5 -210 5 l-210 0 0 75 0 75 325 0 c179 0 325 -2 325 -5z m770
-70 l0 -75 -135 0 -135 0 0 -434 0 -434 -54 -4 c-96 -6 -86 -50 -86 415 0 227
0 423 0 437 l0 25 -165 -3 c-91 -2 -165 1 -165 6 0 13 62 126 74 134 6 4 158
8 339 8 l327 0 0 -75z m-1980 -424 l0 -179 -32 -3 c-18 -2 -86 -2 -150 1 -98
4 -121 8 -145 26 -66 49 -95 126 -74 204 15 54 42 86 96 111 32 15 65 19 173
19 l132 0 0 -179z m-3715 64 c36 -18 55 -51 55 -98 0 -44 -23 -74 -69 -88
-117 -35 -186 131 -77 185 39 20 50 20 91 1z m6038 -25 c45 -51 32 -126 -28
-155 -39 -18 -59 -19 -88 -4 -37 19 -57 52 -57 94 0 96 107 136 173 65z
m-1873 -40 l0 -70 -180 0 -180 0 0 70 0 70 180 0 180 0 0 -70z m-10 -450 l0
-70 -446 0 c-245 0 -444 3 -442 8 2 4 17 35 33 69 l30 62 413 0 412 1 0 -70z
m-1990 -549 c16 -31 12 -49 -14 -66 -44 -29 -91 18 -66 65 14 27 65 27 80 1z
m1657 -7 c12 -18 11 -24 -8 -47 -23 -31 -41 -34 -63 -11 -19 19 -21 55 -4 72
18 18 58 11 75 -14z m-807 -123 c50 -26 78 -95 61 -150 -42 -142 -261 -114
-261 33 0 106 106 168 200 117z m-38 -1628 c38 -35 14 -87 -39 -81 -38 4 -55
49 -28 78 22 24 42 25 67 3z"/>
</g>
</svg>
